<mxfile host="app.diagrams.net" agent="Mozilla/5.0 (Windows NT 10.0; Win64; x64) AppleWebKit/537.36 (KHTML, like Gecko) Chrome/128.0.0.0 Safari/537.36 Edg/128.0.0.0" version="24.7.8">
  <diagram id="C5RBs43oDa-KdzZeNtuy" name="Page-1">
    <mxGraphModel dx="2125" dy="3877" grid="1" gridSize="10" guides="1" tooltips="1" connect="1" arrows="1" fold="1" page="1" pageScale="1" pageWidth="827" pageHeight="1169" math="0" shadow="0">
      <root>
        <mxCell id="WIyWlLk6GJQsqaUBKTNV-0" />
        <mxCell id="WIyWlLk6GJQsqaUBKTNV-1" parent="WIyWlLk6GJQsqaUBKTNV-0" />
        <mxCell id="XKgDxaua8vzRUgSPJHGo-11" value="" style="edgeStyle=orthogonalEdgeStyle;rounded=0;orthogonalLoop=1;jettySize=auto;html=1;exitX=0.5;exitY=1;exitDx=0;exitDy=0;" edge="1" parent="WIyWlLk6GJQsqaUBKTNV-1" source="XKgDxaua8vzRUgSPJHGo-0" target="XKgDxaua8vzRUgSPJHGo-5">
          <mxGeometry relative="1" as="geometry" />
        </mxCell>
        <mxCell id="XKgDxaua8vzRUgSPJHGo-13" value="" style="edgeStyle=orthogonalEdgeStyle;rounded=0;orthogonalLoop=1;jettySize=auto;html=1;" edge="1" parent="WIyWlLk6GJQsqaUBKTNV-1" source="XKgDxaua8vzRUgSPJHGo-0" target="XKgDxaua8vzRUgSPJHGo-12">
          <mxGeometry relative="1" as="geometry" />
        </mxCell>
        <mxCell id="XKgDxaua8vzRUgSPJHGo-0" value="新增计算公式" style="rounded=1;whiteSpace=wrap;html=1;fontSize=12;glass=0;strokeWidth=1;shadow=0;" vertex="1" parent="WIyWlLk6GJQsqaUBKTNV-1">
          <mxGeometry x="-190" y="480" width="120" height="40" as="geometry" />
        </mxCell>
        <mxCell id="XKgDxaua8vzRUgSPJHGo-15" value="" style="edgeStyle=orthogonalEdgeStyle;rounded=0;orthogonalLoop=1;jettySize=auto;html=1;" edge="1" parent="WIyWlLk6GJQsqaUBKTNV-1" source="XKgDxaua8vzRUgSPJHGo-1" target="XKgDxaua8vzRUgSPJHGo-14">
          <mxGeometry relative="1" as="geometry" />
        </mxCell>
        <mxCell id="XKgDxaua8vzRUgSPJHGo-17" value="" style="edgeStyle=orthogonalEdgeStyle;rounded=0;orthogonalLoop=1;jettySize=auto;html=1;exitX=0.5;exitY=1;exitDx=0;exitDy=0;" edge="1" parent="WIyWlLk6GJQsqaUBKTNV-1" source="XKgDxaua8vzRUgSPJHGo-1" target="XKgDxaua8vzRUgSPJHGo-16">
          <mxGeometry relative="1" as="geometry" />
        </mxCell>
        <mxCell id="XKgDxaua8vzRUgSPJHGo-19" value="" style="edgeStyle=orthogonalEdgeStyle;rounded=0;orthogonalLoop=1;jettySize=auto;html=1;exitX=0.5;exitY=1;exitDx=0;exitDy=0;" edge="1" parent="WIyWlLk6GJQsqaUBKTNV-1" source="XKgDxaua8vzRUgSPJHGo-1" target="XKgDxaua8vzRUgSPJHGo-18">
          <mxGeometry relative="1" as="geometry" />
        </mxCell>
        <mxCell id="XKgDxaua8vzRUgSPJHGo-1" value="删除计算公式" style="rounded=1;whiteSpace=wrap;html=1;fontSize=12;glass=0;strokeWidth=1;shadow=0;" vertex="1" parent="WIyWlLk6GJQsqaUBKTNV-1">
          <mxGeometry x="357" y="510" width="120" height="40" as="geometry" />
        </mxCell>
        <mxCell id="XKgDxaua8vzRUgSPJHGo-35" value="" style="edgeStyle=orthogonalEdgeStyle;rounded=0;orthogonalLoop=1;jettySize=auto;html=1;" edge="1" parent="WIyWlLk6GJQsqaUBKTNV-1" source="XKgDxaua8vzRUgSPJHGo-2" target="XKgDxaua8vzRUgSPJHGo-34">
          <mxGeometry relative="1" as="geometry" />
        </mxCell>
        <mxCell id="XKgDxaua8vzRUgSPJHGo-2" value="绑定传感器" style="rounded=1;whiteSpace=wrap;html=1;fontSize=12;glass=0;strokeWidth=1;shadow=0;" vertex="1" parent="WIyWlLk6GJQsqaUBKTNV-1">
          <mxGeometry x="-180" y="70" width="120" height="40" as="geometry" />
        </mxCell>
        <mxCell id="XKgDxaua8vzRUgSPJHGo-39" value="" style="edgeStyle=orthogonalEdgeStyle;rounded=0;orthogonalLoop=1;jettySize=auto;html=1;" edge="1" parent="WIyWlLk6GJQsqaUBKTNV-1" source="XKgDxaua8vzRUgSPJHGo-3" target="XKgDxaua8vzRUgSPJHGo-38">
          <mxGeometry relative="1" as="geometry" />
        </mxCell>
        <mxCell id="XKgDxaua8vzRUgSPJHGo-3" value="解绑传感器" style="rounded=1;whiteSpace=wrap;html=1;fontSize=12;glass=0;strokeWidth=1;shadow=0;" vertex="1" parent="WIyWlLk6GJQsqaUBKTNV-1">
          <mxGeometry x="150" y="70" width="120" height="40" as="geometry" />
        </mxCell>
        <mxCell id="XKgDxaua8vzRUgSPJHGo-45" value="" style="edgeStyle=orthogonalEdgeStyle;rounded=0;orthogonalLoop=1;jettySize=auto;html=1;" edge="1" parent="WIyWlLk6GJQsqaUBKTNV-1" source="XKgDxaua8vzRUgSPJHGo-4" target="XKgDxaua8vzRUgSPJHGo-44">
          <mxGeometry relative="1" as="geometry" />
        </mxCell>
        <mxCell id="XKgDxaua8vzRUgSPJHGo-47" value="" style="edgeStyle=orthogonalEdgeStyle;rounded=0;orthogonalLoop=1;jettySize=auto;html=1;" edge="1" parent="WIyWlLk6GJQsqaUBKTNV-1" source="XKgDxaua8vzRUgSPJHGo-4" target="XKgDxaua8vzRUgSPJHGo-46">
          <mxGeometry relative="1" as="geometry" />
        </mxCell>
        <mxCell id="XKgDxaua8vzRUgSPJHGo-4" value="删除节点" style="rounded=1;whiteSpace=wrap;html=1;fontSize=12;glass=0;strokeWidth=1;shadow=0;" vertex="1" parent="WIyWlLk6GJQsqaUBKTNV-1">
          <mxGeometry x="-160" y="-210" width="120" height="40" as="geometry" />
        </mxCell>
        <mxCell id="XKgDxaua8vzRUgSPJHGo-29" value="" style="edgeStyle=orthogonalEdgeStyle;rounded=0;orthogonalLoop=1;jettySize=auto;html=1;" edge="1" parent="WIyWlLk6GJQsqaUBKTNV-1" source="XKgDxaua8vzRUgSPJHGo-5" target="XKgDxaua8vzRUgSPJHGo-28">
          <mxGeometry relative="1" as="geometry" />
        </mxCell>
        <mxCell id="XKgDxaua8vzRUgSPJHGo-5" value="测点公式" style="rounded=1;whiteSpace=wrap;html=1;fontSize=12;glass=0;strokeWidth=1;shadow=0;" vertex="1" parent="WIyWlLk6GJQsqaUBKTNV-1">
          <mxGeometry x="-360" y="590" width="120" height="40" as="geometry" />
        </mxCell>
        <mxCell id="XKgDxaua8vzRUgSPJHGo-12" value="设备类型公式" style="rounded=1;whiteSpace=wrap;html=1;fontSize=12;glass=0;strokeWidth=1;shadow=0;" vertex="1" parent="WIyWlLk6GJQsqaUBKTNV-1">
          <mxGeometry x="-110" y="590" width="120" height="40" as="geometry" />
        </mxCell>
        <mxCell id="XKgDxaua8vzRUgSPJHGo-26" value="" style="edgeStyle=orthogonalEdgeStyle;rounded=0;orthogonalLoop=1;jettySize=auto;html=1;exitX=0.5;exitY=1;exitDx=0;exitDy=0;" edge="1" parent="WIyWlLk6GJQsqaUBKTNV-1" source="XKgDxaua8vzRUgSPJHGo-14" target="XKgDxaua8vzRUgSPJHGo-24">
          <mxGeometry relative="1" as="geometry" />
        </mxCell>
        <mxCell id="XKgDxaua8vzRUgSPJHGo-31" value="" style="edgeStyle=orthogonalEdgeStyle;rounded=0;orthogonalLoop=1;jettySize=auto;html=1;" edge="1" parent="WIyWlLk6GJQsqaUBKTNV-1" source="XKgDxaua8vzRUgSPJHGo-14" target="XKgDxaua8vzRUgSPJHGo-30">
          <mxGeometry relative="1" as="geometry" />
        </mxCell>
        <mxCell id="XKgDxaua8vzRUgSPJHGo-14" value="设备类型" style="rounded=1;whiteSpace=wrap;html=1;fontSize=12;glass=0;strokeWidth=1;shadow=0;" vertex="1" parent="WIyWlLk6GJQsqaUBKTNV-1">
          <mxGeometry x="357" y="690" width="120" height="40" as="geometry" />
        </mxCell>
        <mxCell id="XKgDxaua8vzRUgSPJHGo-23" value="" style="edgeStyle=orthogonalEdgeStyle;rounded=0;orthogonalLoop=1;jettySize=auto;html=1;" edge="1" parent="WIyWlLk6GJQsqaUBKTNV-1" source="XKgDxaua8vzRUgSPJHGo-16" target="XKgDxaua8vzRUgSPJHGo-22">
          <mxGeometry relative="1" as="geometry" />
        </mxCell>
        <mxCell id="XKgDxaua8vzRUgSPJHGo-16" value="能源类型" style="rounded=1;whiteSpace=wrap;html=1;fontSize=12;glass=0;strokeWidth=1;shadow=0;" vertex="1" parent="WIyWlLk6GJQsqaUBKTNV-1">
          <mxGeometry x="40" y="690" width="120" height="40" as="geometry" />
        </mxCell>
        <mxCell id="XKgDxaua8vzRUgSPJHGo-27" value="" style="edgeStyle=orthogonalEdgeStyle;rounded=0;orthogonalLoop=1;jettySize=auto;html=1;" edge="1" parent="WIyWlLk6GJQsqaUBKTNV-1" source="XKgDxaua8vzRUgSPJHGo-18" target="XKgDxaua8vzRUgSPJHGo-25">
          <mxGeometry relative="1" as="geometry" />
        </mxCell>
        <mxCell id="XKgDxaua8vzRUgSPJHGo-18" value="指标" style="rounded=1;whiteSpace=wrap;html=1;fontSize=12;glass=0;strokeWidth=1;shadow=0;" vertex="1" parent="WIyWlLk6GJQsqaUBKTNV-1">
          <mxGeometry x="580" y="690" width="120" height="40" as="geometry" />
        </mxCell>
        <mxCell id="XKgDxaua8vzRUgSPJHGo-22" value="指标" style="rounded=1;whiteSpace=wrap;html=1;fontSize=12;glass=0;strokeWidth=1;shadow=0;" vertex="1" parent="WIyWlLk6GJQsqaUBKTNV-1">
          <mxGeometry x="40" y="810" width="120" height="40" as="geometry" />
        </mxCell>
        <mxCell id="XKgDxaua8vzRUgSPJHGo-24" value="指标" style="rounded=1;whiteSpace=wrap;html=1;fontSize=12;glass=0;strokeWidth=1;shadow=0;" vertex="1" parent="WIyWlLk6GJQsqaUBKTNV-1">
          <mxGeometry x="190" y="810" width="120" height="40" as="geometry" />
        </mxCell>
        <mxCell id="XKgDxaua8vzRUgSPJHGo-25" value="指标" style="rounded=1;whiteSpace=wrap;html=1;fontSize=12;glass=0;strokeWidth=1;shadow=0;" vertex="1" parent="WIyWlLk6GJQsqaUBKTNV-1">
          <mxGeometry x="580" y="810" width="120" height="40" as="geometry" />
        </mxCell>
        <mxCell id="XKgDxaua8vzRUgSPJHGo-28" value="更新节点tagNameMap" style="rounded=1;whiteSpace=wrap;html=1;fontSize=12;glass=0;strokeWidth=1;shadow=0;" vertex="1" parent="WIyWlLk6GJQsqaUBKTNV-1">
          <mxGeometry x="-360" y="710" width="120" height="40" as="geometry" />
        </mxCell>
        <mxCell id="XKgDxaua8vzRUgSPJHGo-33" value="" style="edgeStyle=orthogonalEdgeStyle;rounded=0;orthogonalLoop=1;jettySize=auto;html=1;" edge="1" parent="WIyWlLk6GJQsqaUBKTNV-1" source="XKgDxaua8vzRUgSPJHGo-30" target="XKgDxaua8vzRUgSPJHGo-32">
          <mxGeometry relative="1" as="geometry" />
        </mxCell>
        <mxCell id="XKgDxaua8vzRUgSPJHGo-30" value="自动生成的设备、设备类型公式" style="rounded=1;whiteSpace=wrap;html=1;fontSize=12;glass=0;strokeWidth=1;shadow=0;" vertex="1" parent="WIyWlLk6GJQsqaUBKTNV-1">
          <mxGeometry x="357" y="810" width="120" height="40" as="geometry" />
        </mxCell>
        <mxCell id="XKgDxaua8vzRUgSPJHGo-32" value="节点" style="rounded=1;whiteSpace=wrap;html=1;fontSize=12;glass=0;strokeWidth=1;shadow=0;" vertex="1" parent="WIyWlLk6GJQsqaUBKTNV-1">
          <mxGeometry x="357" y="930" width="120" height="40" as="geometry" />
        </mxCell>
        <mxCell id="XKgDxaua8vzRUgSPJHGo-37" value="" style="edgeStyle=orthogonalEdgeStyle;rounded=0;orthogonalLoop=1;jettySize=auto;html=1;" edge="1" parent="WIyWlLk6GJQsqaUBKTNV-1" source="XKgDxaua8vzRUgSPJHGo-34" target="XKgDxaua8vzRUgSPJHGo-36">
          <mxGeometry relative="1" as="geometry" />
        </mxCell>
        <mxCell id="XKgDxaua8vzRUgSPJHGo-34" value="节点tagNameMap更新" style="rounded=1;whiteSpace=wrap;html=1;fontSize=12;glass=0;strokeWidth=1;shadow=0;" vertex="1" parent="WIyWlLk6GJQsqaUBKTNV-1">
          <mxGeometry x="-180" y="190" width="120" height="40" as="geometry" />
        </mxCell>
        <mxCell id="XKgDxaua8vzRUgSPJHGo-36" value="设备节点：更新设备类型衍生公式" style="rounded=1;whiteSpace=wrap;html=1;fontSize=12;glass=0;strokeWidth=1;shadow=0;" vertex="1" parent="WIyWlLk6GJQsqaUBKTNV-1">
          <mxGeometry x="-180" y="290" width="120" height="40" as="geometry" />
        </mxCell>
        <mxCell id="XKgDxaua8vzRUgSPJHGo-41" value="" style="edgeStyle=orthogonalEdgeStyle;rounded=0;orthogonalLoop=1;jettySize=auto;html=1;" edge="1" parent="WIyWlLk6GJQsqaUBKTNV-1" source="XKgDxaua8vzRUgSPJHGo-38" target="XKgDxaua8vzRUgSPJHGo-40">
          <mxGeometry relative="1" as="geometry" />
        </mxCell>
        <mxCell id="XKgDxaua8vzRUgSPJHGo-43" value="" style="edgeStyle=orthogonalEdgeStyle;rounded=0;orthogonalLoop=1;jettySize=auto;html=1;exitX=0.5;exitY=1;exitDx=0;exitDy=0;" edge="1" parent="WIyWlLk6GJQsqaUBKTNV-1" source="XKgDxaua8vzRUgSPJHGo-38" target="XKgDxaua8vzRUgSPJHGo-42">
          <mxGeometry relative="1" as="geometry" />
        </mxCell>
        <mxCell id="XKgDxaua8vzRUgSPJHGo-38" value="节点tagNameMap更新" style="rounded=1;whiteSpace=wrap;html=1;fontSize=12;glass=0;strokeWidth=1;shadow=0;" vertex="1" parent="WIyWlLk6GJQsqaUBKTNV-1">
          <mxGeometry x="150" y="180" width="120" height="40" as="geometry" />
        </mxCell>
        <mxCell id="XKgDxaua8vzRUgSPJHGo-40" value="设备节点：更新设备类型衍生公式" style="rounded=1;whiteSpace=wrap;html=1;fontSize=12;glass=0;strokeWidth=1;shadow=0;" vertex="1" parent="WIyWlLk6GJQsqaUBKTNV-1">
          <mxGeometry x="150" y="290" width="120" height="40" as="geometry" />
        </mxCell>
        <mxCell id="XKgDxaua8vzRUgSPJHGo-42" value="更新测点、指标、能源公式" style="rounded=1;whiteSpace=wrap;html=1;fontSize=12;glass=0;strokeWidth=1;shadow=0;" vertex="1" parent="WIyWlLk6GJQsqaUBKTNV-1">
          <mxGeometry x="294" y="290" width="120" height="40" as="geometry" />
        </mxCell>
        <mxCell id="XKgDxaua8vzRUgSPJHGo-44" value="所有类型节点：所有类型计算公式（根据数据引用查询）" style="rounded=1;whiteSpace=wrap;html=1;fontSize=12;glass=0;strokeWidth=1;shadow=0;" vertex="1" parent="WIyWlLk6GJQsqaUBKTNV-1">
          <mxGeometry x="-240" y="-101" width="140" height="51" as="geometry" />
        </mxCell>
        <mxCell id="XKgDxaua8vzRUgSPJHGo-46" value="设备节点：判断是否最后一个设备节点后更新计算公式和衍生计算公式" style="rounded=1;whiteSpace=wrap;html=1;fontSize=12;glass=0;strokeWidth=1;shadow=0;" vertex="1" parent="WIyWlLk6GJQsqaUBKTNV-1">
          <mxGeometry x="-90" y="-101" width="160" height="51" as="geometry" />
        </mxCell>
      </root>
    </mxGraphModel>
  </diagram>
</mxfile>
